<svg width="60" height="36" viewBox="0 0 60 36" fill="none" xmlns="http://www.w3.org/2000/svg">
<g clip-path="url(#clip0_22_166)">
<path d="M17.1034 12.7695C17.1034 13.493 17.1816 14.0796 17.3185 14.5099C17.475 14.9401 17.6705 15.4094 17.9443 15.9178C18.0421 16.0743 18.0812 16.2307 18.0812 16.3676C18.0812 16.5631 17.9639 16.7587 17.7096 16.9542L16.4777 17.7756C16.3017 17.8929 16.1257 17.9515 15.9692 17.9515C15.7737 17.9515 15.5781 17.8538 15.3826 17.6778C15.1088 17.3845 14.8742 17.0716 14.6786 16.7587C14.483 16.4263 14.2875 16.0547 14.0724 15.6049C12.5471 17.404 10.6307 18.3035 8.3232 18.3035C6.68058 18.3035 5.37039 17.8342 4.41219 16.8956C3.45399 15.9569 2.96512 14.7054 2.96512 13.141C2.96512 11.4788 3.55177 10.1295 4.74463 9.11266C5.93749 8.0958 7.52145 7.58737 9.53562 7.58737C10.2005 7.58737 10.8849 7.64603 11.6085 7.74381C12.332 7.84158 13.0751 7.99802 13.8573 8.17402V6.7465C13.8573 5.26031 13.5444 4.22389 12.9382 3.61769C12.3124 3.01148 11.2565 2.71815 9.75072 2.71815C9.0663 2.71815 8.36232 2.79637 7.63878 2.97237C6.91524 3.14837 6.21126 3.36347 5.52683 3.63724C5.21395 3.77413 4.97929 3.85235 4.8424 3.89146C4.70552 3.93057 4.60774 3.95012 4.52952 3.95012C4.25575 3.95012 4.11887 3.75457 4.11887 3.34392V2.38572C4.11887 2.07284 4.15798 1.83818 4.25575 1.70129C4.35353 1.56441 4.52952 1.42752 4.80329 1.29063C5.48772 0.938643 6.30903 0.645317 7.26723 0.410656C8.22543 0.15644 9.24229 0.0391101 10.3178 0.0391101C12.6449 0.0391101 14.3462 0.567097 15.4412 1.62307C16.5168 2.67904 17.0643 4.28256 17.0643 6.43362V12.7695H17.1034ZM9.16407 15.7418C9.80939 15.7418 10.4743 15.6245 11.1782 15.3898C11.8822 15.1552 12.508 14.725 13.036 14.1383C13.3489 13.7668 13.5835 13.3561 13.7008 12.8868C13.8182 12.4175 13.8964 11.8504 13.8964 11.1855V10.3642C13.3293 10.2273 12.7231 10.11 12.0973 10.0317C11.4716 9.95353 10.8654 9.91442 10.2592 9.91442C8.94897 9.91442 7.99077 10.1686 7.34545 10.6966C6.70013 11.2246 6.38725 11.9677 6.38725 12.9455C6.38725 13.8645 6.62191 14.549 7.11079 15.0183C7.58011 15.5072 8.26454 15.7418 9.16407 15.7418ZM24.8668 17.8538C24.5148 17.8538 24.2801 17.7951 24.1237 17.6582C23.9673 17.5409 23.8304 17.2671 23.713 16.8956L19.1176 1.77951C19.0003 1.38841 18.9416 1.13419 18.9416 0.997308C18.9416 0.684427 19.098 0.508432 19.4109 0.508432H21.3273C21.6989 0.508432 21.9531 0.567097 22.09 0.703982C22.2464 0.821313 22.3637 1.09508 22.4811 1.46663L25.7663 14.4121L28.8169 1.46663C28.9147 1.07553 29.032 0.821313 29.1885 0.703982C29.3449 0.586652 29.6187 0.508432 29.9707 0.508432H31.5351C31.9066 0.508432 32.1608 0.567097 32.3173 0.703982C32.4737 0.821313 32.6106 1.09508 32.6888 1.46663L35.7785 14.5685L39.1615 1.46663C39.2789 1.07553 39.4157 0.821313 39.5526 0.703982C39.7091 0.586652 39.9633 0.508432 40.3153 0.508432H42.1339C42.4468 0.508432 42.6228 0.664872 42.6228 0.997308C42.6228 1.09508 42.6032 1.19286 42.5837 1.31019C42.5641 1.42752 42.525 1.58396 42.4468 1.79907L37.734 16.9151C37.6167 17.3062 37.4798 17.5604 37.3234 17.6778C37.1669 17.7951 36.9127 17.8733 36.5803 17.8733H34.8985C34.527 17.8733 34.2728 17.8147 34.1163 17.6778C33.9599 17.5409 33.823 17.2867 33.7448 16.8956L30.7137 4.28256L27.7023 16.876C27.6045 17.2671 27.4872 17.5213 27.3307 17.6582C27.1743 17.7951 26.9005 17.8538 26.5485 17.8538H24.8668ZM49.995 18.3818C48.9782 18.3818 47.9613 18.2644 46.9836 18.0298C46.0058 17.7951 45.2432 17.5409 44.7347 17.2476C44.4218 17.0716 44.2067 16.876 44.1285 16.7C44.0503 16.524 44.0112 16.3285 44.0112 16.1525V15.1552C44.0112 14.7445 44.1676 14.549 44.461 14.549C44.5783 14.549 44.6956 14.5685 44.8129 14.6076C44.9303 14.6467 45.1063 14.725 45.3018 14.8032C45.9667 15.0965 46.6902 15.3312 47.4529 15.4876C48.2351 15.6441 48.9977 15.7223 49.7799 15.7223C51.0119 15.7223 51.9701 15.5072 52.635 15.077C53.2998 14.6467 53.6518 14.021 53.6518 13.2192C53.6518 12.6717 53.4758 12.2219 53.1238 11.8504C52.7719 11.4788 52.107 11.1464 51.1488 10.8335L48.3133 9.95353C46.8858 9.50376 45.8298 8.83889 45.1845 7.95891C44.5392 7.09849 44.2067 6.14029 44.2067 5.12343C44.2067 4.30211 44.3827 3.57858 44.7347 2.95281C45.0867 2.32705 45.556 1.77951 46.1427 1.3493C46.7293 0.899533 47.3942 0.567097 48.1764 0.332436C48.9586 0.0977753 49.7799 0 50.6404 0C51.0706 0 51.5203 0.0195551 51.9505 0.0782202C52.4003 0.136885 52.811 0.215106 53.2216 0.293326C53.6127 0.391101 53.9843 0.488877 54.3363 0.606207C54.6883 0.723537 54.962 0.840868 55.1576 0.958198C55.4313 1.11464 55.6269 1.27108 55.7442 1.44707C55.8616 1.60352 55.9202 1.81862 55.9202 2.09239V3.01148C55.9202 3.42214 55.7638 3.63724 55.4705 3.63724C55.314 3.63724 55.0598 3.55902 54.7274 3.40258C53.6127 2.89415 52.3612 2.63993 50.9728 2.63993C49.8582 2.63993 48.9782 2.81593 48.372 3.18748C47.7658 3.55902 47.4529 4.12612 47.4529 4.92788C47.4529 5.47542 47.6484 5.94474 48.0395 6.31629C48.4306 6.68783 49.1542 7.05938 50.1906 7.39181L52.9674 8.27179C54.3754 8.72156 55.3922 9.34732 55.9984 10.1491C56.6046 10.9508 56.898 11.8699 56.898 12.8868C56.898 13.7277 56.722 14.4903 56.3895 15.1552C56.0375 15.82 55.5682 16.4067 54.962 16.876C54.3558 17.3649 53.6323 17.7169 52.7914 17.9711C51.9114 18.2449 50.9923 18.3818 49.995 18.3818Z" fill="#252F3E"/>
<path fill-rule="evenodd" clip-rule="evenodd" d="M53.6909 27.8855C47.2573 32.6374 37.91 35.16 29.8729 35.16C18.6092 35.16 8.46009 30.9948 0.794504 24.0723C0.188297 23.5247 0.735839 22.7816 1.45938 23.2119C9.75072 28.0224 19.978 30.9361 30.5573 30.9361C37.6949 30.9361 45.5365 29.4499 52.7523 26.3993C53.8278 25.9105 54.7469 27.1033 53.6909 27.8855Z" fill="#FF9900"/>
<path fill-rule="evenodd" clip-rule="evenodd" d="M56.37 24.8349C55.5487 23.779 50.9337 24.3265 48.8413 24.5807C48.2155 24.6589 48.1178 24.1114 48.6849 23.7007C52.3612 21.1195 58.4037 21.8626 59.1077 22.723C59.8117 23.603 58.9122 29.6455 55.4705 32.5396C54.9425 32.9894 54.434 32.7547 54.6687 32.1681C55.4509 30.2321 57.1913 25.8713 56.37 24.8349Z" fill="#FF9900"/>
</g>
<defs>
<clipPath id="clip0_22_166">
<rect width="60" height="35.16" fill="white"/>
</clipPath>
</defs>
</svg>
