<svg width="60" height="60" viewBox="0 0 60 60" fill="none" xmlns="http://www.w3.org/2000/svg">
<rect width="60" height="60" rx="12" fill="#F1E7FF"/>
<g clip-path="url(#clip0_22_180)">
<path d="M22.5015 52.991C26.6407 52.991 30 49.6317 30 45.4925V37.994H22.5015C18.3623 37.994 15.003 41.3533 15.003 45.4925C15.003 49.6317 18.3623 52.991 22.5015 52.991Z" fill="#0ACF83"/>
<path d="M15.003 30.4955C15.003 26.3563 18.3623 22.997 22.5015 22.997H30V37.994H22.5015C18.3623 37.994 15.003 34.6347 15.003 30.4955Z" fill="#A259FF"/>
<path d="M15.003 15.4985C15.003 11.3593 18.3623 8 22.5015 8H30V22.997H22.5015C18.3623 22.997 15.003 19.6377 15.003 15.4985Z" fill="#F24E1E"/>
<path d="M30 8H37.4985C41.6377 8 44.997 11.3593 44.997 15.4985C44.997 19.6377 41.6377 22.997 37.4985 22.997H30V8Z" fill="#FF7262"/>
<path d="M44.997 30.4955C44.997 34.6347 41.6377 37.994 37.4985 37.994C33.3593 37.994 30 34.6347 30 30.4955C30 26.3563 33.3593 22.997 37.4985 22.997C41.6377 22.997 44.997 26.3563 44.997 30.4955Z" fill="#1ABCFE"/>
</g>
<defs>
<clipPath id="clip0_22_180">
<rect width="30" height="44.991" fill="white" transform="translate(15 8)"/>
</clipPath>
</defs>
</svg>
