<svg width="60" height="60" viewBox="0 0 60 60" fill="none" xmlns="http://www.w3.org/2000/svg">
<rect width="60" height="60" rx="12" fill="#FFF8BF"/>
<g clip-path="url(#clip0_10_96)">
<path d="M46 10H14C11.7909 10 10 11.7909 10 14V46C10 48.2091 11.7909 50 14 50H46C48.2091 50 50 48.2091 50 46V14C50 11.7909 48.2091 10 46 10Z" fill="#F7DF1E"/>
<path d="M20.5203 43.425L23.5781 41.5727C24.1695 42.625 24.707 43.5016 25.9891 43.5016C27.2273 43.5016 28.0055 43.0195 28.0055 41.1344V28.3672H31.7641V41.2C31.7641 45.0906 29.4844 46.8656 26.1531 46.8656C23.1508 46.8656 21.4086 45.3094 20.5203 43.425Z" fill="black"/>
<path d="M33.8141 43.0195L36.8719 41.2445C37.6828 42.5594 38.7242 43.5242 40.5758 43.5242C42.132 43.5242 43.1289 42.7461 43.1289 41.6719C43.1289 40.3789 42.1094 39.9297 40.3891 39.1734L39.4469 38.768C36.7398 37.6172 34.932 36.1594 34.932 33.1023C34.932 30.2859 37.0797 28.1383 40.4336 28.1383C42.8226 28.1383 44.543 28.9711 45.7812 31.1414L42.8555 33.0156C42.2086 31.8648 41.5187 31.4047 40.4445 31.4047C39.3484 31.4047 38.6477 32.1062 38.6477 33.0156C38.6477 34.1445 39.3492 34.6047 40.9602 35.2953L41.9023 35.7008C45.1023 37.0703 46.8992 38.4625 46.8992 41.6078C46.8992 44.9937 44.2359 46.8461 40.6742 46.8461C37.1672 46.8656 34.9094 45.2 33.8141 43.0195Z" fill="black"/>
</g>
<defs>
<clipPath id="clip0_10_96">
<rect width="40" height="40" fill="white" transform="translate(10 10)"/>
</clipPath>
</defs>
</svg>
