<svg width="62" height="62" viewBox="0 0 62 62" fill="none" xmlns="http://www.w3.org/2000/svg">
<rect y="2" width="60" height="60" rx="12" fill="#DFF4D3"/>
<path d="M29.6126 7.80064L30.9129 10.2429C31.2053 10.6936 31.522 11.0925 31.895 11.464C32.9887 12.5441 34.0081 13.6967 34.9463 14.9142C37.1495 17.8072 38.6356 21.0199 39.6968 24.4945C40.3333 26.617 40.6789 28.7943 40.7048 30.996C40.8114 37.5782 38.5549 43.2301 34.0053 47.9273C33.2653 48.6722 32.4658 49.3556 31.6148 49.9707C31.1641 49.9707 30.951 49.625 30.7652 49.3068C30.4269 48.7167 30.2018 48.0687 30.1014 47.3959C29.9415 46.5996 29.8364 45.8033 29.8882 44.9811V44.6096C29.8517 44.5304 29.4543 7.98792 29.6126 7.80064Z" fill="#599636"/>
<path d="M29.6126 7.71994C29.5593 7.61336 29.506 7.69405 29.4527 7.74582C29.4786 8.27873 29.2929 8.75379 29.0021 9.20752C28.6823 9.65821 28.259 10.0038 27.8342 10.3754C25.4742 12.4187 23.6166 14.8868 22.129 17.6473C20.1496 21.3625 19.1295 25.3441 18.8402 29.5358C18.7077 31.0477 19.3183 36.3829 19.7949 37.9223C21.0952 42.009 23.4308 45.4333 26.4563 48.4054C27.1993 49.121 27.9941 49.7849 28.8163 50.4229C29.0553 50.4229 29.0812 50.2097 29.136 50.0514C29.2408 49.7125 29.3207 49.3665 29.3751 49.016L29.908 45.0359L29.6126 7.71994Z" fill="#6CAC48"/>
<path d="M30.9129 51.5877C30.9662 50.9786 31.2585 50.4731 31.5768 49.9691C31.257 49.8367 31.0195 49.5733 30.8337 49.2794C30.6736 49.0012 30.541 48.7079 30.4379 48.4039C30.0663 47.2894 29.9872 46.12 29.8806 44.9811V44.2914C29.7481 44.3979 29.7207 45.2993 29.7207 45.4333C29.6432 46.637 29.4835 47.8341 29.2426 49.016C29.1634 49.4941 29.1101 49.9707 28.8163 50.3955C28.8163 50.4488 28.8163 50.5021 28.8422 50.5812C29.3203 51.9881 29.4512 53.4209 29.5319 54.8811V55.414C29.5319 56.0504 29.506 55.9164 30.0344 56.1296C30.2475 56.2088 30.4851 56.2362 30.6982 56.3945C30.8581 56.3945 30.884 56.2621 30.884 56.1555L30.8048 55.28V52.8377C30.7789 52.4114 30.8581 51.9881 30.9114 51.5892L30.9129 51.5877Z" fill="#C2BFBF"/>
</svg>
