<svg width="60" height="60" viewBox="0 0 60 60" fill="none" xmlns="http://www.w3.org/2000/svg">
<rect width="60" height="60" rx="12" fill="#DDFFB5"/>
<path d="M30.1059 7C29.5027 7 28.8772 7.15638 28.3634 7.4468L11.7425 17.053C10.6702 17.6785 10 18.8401 10 20.0912V39.2588C10 40.5099 10.6702 41.6715 11.7425 42.297L16.0988 44.7991C18.2211 45.8267 18.936 45.8491 19.9189 45.8491C23.0465 45.8491 24.856 43.9502 24.856 40.6439V21.722C24.856 21.4539 24.6326 21.2305 24.3646 21.2305H22.2869C21.9965 21.2305 21.7731 21.4539 21.7731 21.722V40.6439C21.7731 42.1183 20.254 43.5704 17.819 42.3417L13.2393 39.728C13.0829 39.6163 12.9935 39.4375 12.9935 39.2588V20.0912C12.9935 19.8901 13.0829 19.7114 13.2393 19.622L29.8602 10.0382C29.9942 9.94887 30.2176 9.94887 30.3517 10.0382L46.9725 19.622C47.1289 19.7114 47.2183 19.8901 47.2183 20.0912V39.2588C47.2183 39.4375 47.1289 39.6163 46.9725 39.728L30.3517 49.3118C30.2176 49.4011 29.9942 49.4011 29.8378 49.3118L25.6379 46.765C25.4592 46.698 25.2805 46.6757 25.1688 46.7427C23.9848 47.4129 23.7614 47.5469 22.6667 47.882C22.3986 47.9714 21.9742 48.1278 22.8231 48.5969L28.3634 51.8809C28.8996 52.1936 29.4804 52.35 30.1059 52.35C30.7314 52.35 31.3123 52.1936 31.8484 51.8809L48.4693 42.297C49.5416 41.6715 50.2118 40.5099 50.2118 39.2588V20.0912C50.2118 18.8401 49.5416 17.6785 48.4693 17.053L31.8484 7.4468C31.3346 7.15638 30.7314 7 30.1059 7ZM34.5739 20.739C29.8378 20.739 27.0007 22.7273 27.0007 26.0783C27.0007 29.675 29.8155 30.725 34.3728 31.1718C39.8014 31.7079 40.2259 32.5122 40.2259 33.5845C40.2259 35.4387 38.7291 36.2206 35.2441 36.2206C30.8208 36.2206 29.8825 35.1259 29.5474 32.9366C29.5027 32.7132 29.3017 32.5345 29.0559 32.5345H26.9113C26.6432 32.5345 26.4422 32.7356 26.4422 33.026C26.4422 35.7961 27.9613 39.1471 35.2441 39.1471C40.494 39.1471 43.5099 37.0695 43.5099 33.4504C43.5099 29.8537 41.0971 28.9154 35.9813 28.2229C30.8208 27.5527 30.307 27.1953 30.307 25.9889C30.307 24.9836 30.7538 23.6432 34.5739 23.6432C37.9249 23.6432 39.2429 24.3804 39.7567 26.6815C39.8014 26.9049 40.0025 27.0612 40.2259 27.0612H42.3929C42.5046 27.0612 42.6386 27.0166 42.728 26.9049C42.8173 26.8155 42.8843 26.6815 42.8397 26.5474C42.5269 22.5709 39.8908 20.739 34.5739 20.739Z" fill="#8BC34A"/>
</svg>
