<svg width="60" height="60" viewBox="0 0 60 60" fill="none" xmlns="http://www.w3.org/2000/svg">
<rect width="60" height="60" rx="12" fill="#DCFAFF"/>
<path d="M30 34.6388C32.5888 34.6388 34.6875 32.5401 34.6875 29.9512C34.6875 27.3624 32.5888 25.2637 30 25.2637C27.4112 25.2637 25.3125 27.3624 25.3125 29.9512C25.3125 32.5401 27.4112 34.6388 30 34.6388Z" fill="#00D8FF"/>
<path d="M30 40.6987C24.3659 40.835 18.7459 40.0756 13.35 38.4487C10.8574 37.6586 8.53263 36.4139 6.49313 34.7775C5.71487 34.2185 5.06676 33.4977 4.59327 32.6646C4.11977 31.8316 3.83211 30.9059 3.75 29.9512C3.75 26.8519 7.155 23.8144 12.8587 21.8269C18.3989 20.0658 24.1874 19.2123 30 19.2994C35.7351 19.2192 41.446 20.0573 46.9162 21.7819C49.3168 22.5472 51.5627 23.7317 53.55 25.2806C54.315 25.8136 54.9533 26.5082 55.4199 27.3154C55.8865 28.1225 56.1699 29.0224 56.25 29.9512C56.25 33.1725 52.4438 36.4369 46.3125 38.4656C41.0211 40.0394 35.5197 40.7926 30 40.6987ZM30 21.5419C24.439 21.4675 18.9015 22.2789 13.5956 23.9456C8.34562 25.7775 5.9925 28.2825 5.9925 29.9456C5.9925 31.6856 8.52188 34.4212 14.0756 36.3206C19.2376 37.8691 24.6124 38.5899 30 38.4562C35.2808 38.5507 40.5449 37.8362 45.6094 36.3375C51.375 34.4269 54 31.6875 54 29.9512C53.9054 29.3554 53.6883 28.7857 53.3623 28.278C53.0364 27.7704 52.6087 27.3358 52.1063 27.0019C50.3283 25.6278 48.3219 24.5779 46.1794 23.9006C40.9463 22.2577 35.4843 21.4614 30 21.5419Z" fill="#00D8FF"/>
<path d="M19.35 53.3306C18.4753 53.3507 17.6109 53.1385 16.845 52.7156C14.16 51.1669 13.23 46.7006 14.3569 40.7663C15.5993 35.0871 17.7521 29.6462 20.7319 24.6544C23.527 19.6464 27.1053 15.118 31.3312 11.2406C33.1934 9.54319 35.3416 8.18914 37.6762 7.24125C38.5207 6.84551 39.4418 6.64037 40.3744 6.64037C41.3069 6.64037 42.2281 6.84551 43.0725 7.24125C45.8644 8.85 46.7888 13.7775 45.4856 20.1019C44.2048 25.4729 42.1079 30.6158 39.2681 35.3512C36.5714 40.3 33.1057 44.7891 29.0006 48.6506C27.0708 50.4146 24.8313 51.8062 22.395 52.755C21.4197 53.117 20.3902 53.3116 19.35 53.3306ZM22.6744 25.7681C19.8321 30.5481 17.7687 35.7501 16.5619 41.1787C15.525 46.6444 16.5206 49.9312 17.9681 50.7675C19.4681 51.6356 23.1094 50.8125 27.5306 46.95C31.4494 43.2505 34.7573 38.9535 37.3312 34.2187C40.0518 29.6916 42.0632 24.7746 43.2956 19.6387C44.5219 13.6856 43.4625 10.0406 41.9587 9.17437C41.3951 8.95842 40.7929 8.86175 40.19 8.89047C39.5871 8.9192 38.9968 9.07269 38.4562 9.34125C36.3782 10.1988 34.4676 11.4162 32.8125 12.9375C28.775 16.6515 25.3569 20.9868 22.6875 25.7794L22.6744 25.7681Z" fill="#00D8FF"/>
<path d="M40.6444 53.355C38.1038 53.355 34.8769 51.8175 31.5169 48.9281C27.2169 45.0155 23.5781 40.4332 20.7413 35.3588C17.7989 30.4357 15.6631 25.0735 14.415 19.4756C13.8737 17.0128 13.7734 14.4735 14.1188 11.9756C14.1986 11.049 14.4807 10.1512 14.9453 9.3455C15.4099 8.53979 16.0456 7.84582 16.8075 7.31251C19.5956 5.69813 24.3263 7.35751 29.1544 11.6438C33.168 15.4354 36.5764 19.8201 39.2606 24.645C42.2012 29.4532 44.3593 34.6979 45.6544 40.1831C46.219 42.7363 46.3061 45.372 45.9113 47.9569C45.8173 48.9101 45.5183 49.8318 45.0348 50.6587C44.5513 51.4856 43.8947 52.1982 43.11 52.7475C42.3566 53.1651 41.5056 53.3748 40.6444 53.355ZM22.6819 34.23C25.4033 39.0796 28.8793 43.4651 32.9794 47.2219C37.1963 50.85 40.5413 51.63 41.9794 50.7844C43.4794 49.9125 44.5856 46.3538 43.4456 40.5956C42.1966 35.3586 40.1267 30.3523 37.3125 25.7625C34.7509 21.1446 31.4976 16.946 27.6656 13.3125C23.1206 9.27751 19.4344 8.37563 17.9325 9.24563C17.4644 9.62603 17.0803 10.0994 16.8043 10.6357C16.5284 11.1721 16.3667 11.7599 16.3294 12.3619C16.0313 14.5895 16.1284 16.8523 16.6163 19.0463C17.8168 24.3996 19.8651 29.5268 22.6838 34.2338L22.6819 34.23Z" fill="#00D8FF"/>
</svg>
