<svg width="100" height="30" viewBox="0 0 100 30" fill="none" xmlns="http://www.w3.org/2000/svg">
<path fill-rule="evenodd" clip-rule="evenodd" d="M85.3121 8.08832C85.3121 8.08832 88.3766 1.44684 88.4719 1.30186C88.6992 0.951313 89.0586 0.590836 89.732 0.338602C90.2344 0.151908 91.0449 0 92.3625 0C93.9426 0 94.8641 0.233337 95.3984 0.492523C96.5711 1.06054 96.7867 1.87088 96.7895 2.58786L96.7906 3.29988L97.1828 3.29391C97.7914 3.29391 98.2899 3.3972 98.7129 3.73582C98.9883 3.95629 99.2789 4.29391 99.459 4.9225C99.5711 5.31871 99.6563 5.95625 99.6563 6.98406C99.6563 7.99398 99.5711 8.64641 99.4547 9.07145C99.4024 9.26406 99.3406 9.42992 99.2723 9.57492C99.2652 9.71297 99.2223 9.85 99.1422 9.97313L96.7945 13.5431V15.6156C97.3824 15.6205 97.866 15.7268 98.2781 16.0575C98.5543 16.2779 98.8453 16.6156 99.0238 17.2442C99.1371 17.6414 99.2227 18.2779 99.2227 19.3057C99.2227 20.5441 99.0856 21.266 98.9234 21.694C98.7559 22.1359 95.2375 28.0087 95.1629 28.0723C95.1629 28.0723 94.1531 28.9234 92.8758 28.9234H88.0301C87.3316 28.9234 86.4746 28.695 85.8918 28.0505C85.5047 27.6215 85.2195 27.0048 85.2195 26.113V8.4607C85.2195 8.33063 85.2516 8.20352 85.3121 8.08832Z" fill="#E27152"/>
<path fill-rule="evenodd" clip-rule="evenodd" d="M64.1562 11.0198C64.7082 11.6146 65.05 12.4289 65.05 13.4925C65.05 14.559 64.9793 18.7993 64.9445 20.835C64.9328 21.556 64.7082 22.257 64.298 22.8499C63.1531 24.5202 60.8375 28.1279 60.8285 28.1408C60.8285 28.1408 60.4055 28.9442 58.1074 28.9442H42.8969C42.0906 28.9442 41.4461 28.6642 40.9953 28.2064C40.5496 27.7536 40.2812 27.1111 40.2812 26.3226C40.2812 23.416 40.2812 13.9542 40.2812 13.9721C40.2812 13.9721 40.2844 13.0992 40.8305 12.2134C41.2973 11.4557 44.9207 5.1797 45.202 4.7656C45.7707 3.92845 47.1473 3.48953 48.3695 3.48953C49.5922 3.48953 58.173 3.53027 60.0699 3.53027C62.041 3.53027 63.1891 4.17872 63.8969 4.93044C64.9656 6.06552 65.05 7.61267 65.05 8.39517C65.05 9.1499 64.9844 9.93736 64.5602 10.558C64.452 10.7159 64.3211 10.8728 64.1562 11.0198Z" fill="#E27152"/>
<path fill-rule="evenodd" clip-rule="evenodd" d="M85.4617 11.0198C86.0141 11.6146 86.3555 12.4289 86.3555 13.4925C86.3555 14.559 86.2851 18.7993 86.2504 20.835C86.2383 21.556 86.0141 22.257 85.6039 22.8499C84.459 24.5202 82.143 28.1279 82.1344 28.1408C82.1344 28.1408 81.7113 28.9442 79.4133 28.9442H64.2027C63.3965 28.9442 62.7519 28.6642 62.3012 28.2064C61.8551 27.7536 61.5871 27.1111 61.5871 26.3226C61.5871 23.416 61.5871 13.9542 61.5871 13.9721C61.5871 13.9721 61.5902 13.0992 62.1363 12.2134C62.6031 11.4557 66.2266 5.1797 66.5078 4.7656C67.0766 3.92845 68.4531 3.48953 69.6754 3.48953C70.898 3.48953 79.4789 3.53027 81.3754 3.53027C83.3465 3.53027 84.4945 4.17872 85.2027 4.93044C86.2711 6.06552 86.3555 7.61267 86.3555 8.39517C86.3555 9.1499 86.2902 9.93736 85.866 10.558C85.7578 10.7159 85.6266 10.8728 85.4617 11.0198Z" fill="#E27152"/>
<path d="M90.0488 4.84405L90.018 2.59976C90.018 2.04564 90.0555 1.51935 92.5492 1.51935C95.0078 1.51935 95.2504 2.07047 95.2523 2.57891L95.257 4.84405L97.1797 4.81225C97.734 4.81225 98.1203 4.69807 98.1203 6.96913C98.1203 9.00389 97.7816 9.24921 97.3387 9.27897V9.28097H95.257V16.2482C95.257 17.1578 95.7734 17.1637 95.7734 17.1637L96.7449 17.134C97.3 17.134 97.6863 17.0197 97.6863 19.2918C97.6863 21.5629 97.2633 21.6046 96.7449 21.6046C96.7449 21.6046 92.3109 21.6046 91.3336 21.6046C89.8918 21.6046 90.0488 20.5202 90.0488 19.8618V9.28097L89.3039 9.28393C88.7496 9.28393 88.3637 9.39815 88.3637 7.12608C88.3637 4.85499 88.7856 4.81327 89.3039 4.81327L90.0488 4.84405Z" fill="#FFFBF9"/>
<path fill-rule="evenodd" clip-rule="evenodd" d="M58.5781 15.6355C58.5781 15.5262 58.5355 15.4229 58.4578 15.3455C58.3816 15.269 58.2773 15.2263 58.1691 15.2263C56.298 15.2313 48.6617 15.2502 48.6617 15.2502C47.2336 15.2502 45.7668 14.5471 45.7668 13.1261C45.7668 12.6434 45.7293 8.38824 45.7293 8.24027C45.7293 5.87285 47.1184 4.88281 48.7031 4.88281H60.3617C63.8156 4.88281 63.8086 7.8977 63.8086 8.80832C63.8086 9.39918 63.9227 10.1936 61.6516 10.1936C59.3797 10.1936 59.15 9.85395 59.15 9.58484C59.15 9.31574 58.9695 9.16578 58.7828 9.16578C58.5961 9.16578 53.0984 9.17371 51.3617 9.17371C51.2324 9.17371 51.1094 9.22438 51.018 9.31574C50.9277 9.40609 50.8762 9.52926 50.8762 9.65832C50.8762 9.91059 50.8762 10.4091 50.8762 10.6613C50.8762 10.7894 50.9277 10.9126 51.018 11.0039C51.1094 11.0953 51.2324 11.1459 51.3617 11.1459C53.4363 11.1459 61.4641 11.1459 61.4641 11.1459C62.8918 11.1459 63.8086 11.848 63.8086 13.27V19.693C63.8086 20.9552 62.8305 21.702 61.2453 21.702H48.9527C46.6398 21.702 45.7668 20.3484 45.7668 18.6573V17.2084C45.7668 16.8986 46.034 16.2104 48.3062 16.2104C50.5773 16.2104 50.6844 16.5183 50.8098 16.7675C50.9328 17.0148 51.1254 17.2084 51.3617 17.2084C51.5969 17.2084 56.5684 17.2104 58.1691 17.2114C58.2781 17.2114 58.3816 17.1677 58.459 17.0913C58.5355 17.0148 58.5781 16.9105 58.5781 16.8023C58.5781 16.4607 58.5781 15.9771 58.5781 15.6355Z" fill="#FFFBF9"/>
<path fill-rule="evenodd" clip-rule="evenodd" d="M79.884 15.6355C79.884 15.5262 79.8414 15.4229 79.7637 15.3455C79.6871 15.269 79.5828 15.2263 79.4746 15.2263C77.6039 15.2313 69.9676 15.2502 69.9676 15.2502C68.5395 15.2502 67.0727 14.5471 67.0727 13.1261C67.0727 12.6434 67.0348 8.38824 67.0348 8.24027C67.0348 5.87285 68.4242 4.88281 70.009 4.88281H81.6676C85.1211 4.88281 85.1145 7.8977 85.1145 8.80832C85.1145 9.39918 85.2285 10.1936 82.9574 10.1936C80.6852 10.1936 80.4559 9.85395 80.4559 9.58484C80.4559 9.31574 80.2754 9.16578 80.0887 9.16578C79.9019 9.16578 74.4043 9.17371 72.6664 9.17371C72.5383 9.17371 72.4152 9.22438 72.3238 9.31574C72.2336 9.40609 72.182 9.52926 72.182 9.65832C72.182 9.91059 72.182 10.4091 72.182 10.6613C72.182 10.7894 72.2336 10.9126 72.3238 11.0039C72.4152 11.0953 72.5383 11.1459 72.6664 11.1459C74.7418 11.1459 82.7695 11.1459 82.7695 11.1459C84.1977 11.1459 85.1145 11.848 85.1145 13.27V19.693C85.1145 20.9552 84.1363 21.702 82.5512 21.702H70.2582C67.9457 21.702 67.0727 20.3484 67.0727 18.6573V17.2084C67.0727 16.8986 67.3398 16.2104 69.6117 16.2104C71.8828 16.2104 71.9902 16.5183 72.1152 16.7675C72.2387 17.0148 72.4312 17.2084 72.6664 17.2084C72.9027 17.2084 77.8738 17.2104 79.4746 17.2114C79.584 17.2114 79.6871 17.1677 79.7648 17.0913C79.841 17.0148 79.884 16.9105 79.884 16.8023C79.884 16.4607 79.884 15.9771 79.884 15.6355Z" fill="#FFFBF9"/>
<path fill-rule="evenodd" clip-rule="evenodd" d="M8.72523 23.6327C8.74856 23.5984 8.75098 23.5539 8.73152 23.517C8.71207 23.4805 8.67391 23.4577 8.63234 23.4577C7.75223 23.4577 4.32324 23.4577 2.06045 23.4577C1.51365 23.4577 0.989309 23.2405 0.602902 22.8535C0.21644 22.4665 -0.000475023 21.942 7.81111e-07 21.3954C0.00232695 18.5474 0.0064507 13.5646 0.00787813 11.829C0.00819535 11.4246 0.114248 11.0276 0.315461 10.6765C1.04122 9.41191 2.8725 6.22031 3.82612 4.55816C4.19609 3.9132 4.88266 3.51562 5.62606 3.51562H26.9289C27.3772 3.51562 27.7902 3.75936 28.0075 4.15109C28.2247 4.5434 28.212 5.02234 27.9743 5.40246C27.1836 6.66652 26.1966 8.24461 25.6834 9.06512C25.6136 9.17668 25.6098 9.31731 25.6736 9.43254C25.7374 9.54781 25.8587 9.61918 25.9902 9.61918C27.1281 9.61918 29.5111 9.61918 31.1806 9.61918C32.1835 9.61918 32.9965 10.4323 32.9965 11.4352V20.6129C32.9965 21.6386 32.7366 22.6478 32.2411 23.5455C31.6168 24.6769 30.6038 26.2798 29.9649 27.4376C29.4649 28.3438 28.5119 28.9062 27.477 28.9062H7.48371C7.02551 28.9062 6.60477 28.653 6.3902 28.248C6.17559 27.8436 6.20223 27.353 6.45938 26.9739C7.33102 25.6887 8.37742 24.1455 8.72523 23.6327Z" fill="#E27152"/>
<path fill-rule="evenodd" clip-rule="evenodd" d="M11.8066 22.67C11.3885 22.67 10.9965 22.8736 10.7556 23.2151C10.0912 24.1577 8.73313 26.0842 8.04965 27.0538C7.96977 27.1675 7.95973 27.3155 8.02352 27.4387C8.08735 27.5618 8.21438 27.639 8.35293 27.639C11.4135 27.639 23.2869 27.639 27.0148 27.639C27.702 27.639 28.3367 27.2716 28.6793 26.6758C29.1672 25.8273 30.0052 24.5939 30.5075 23.72C30.6323 23.5032 30.6319 23.2362 30.5066 23.02C30.3814 22.8032 30.1502 22.67 29.9 22.67C26.1311 22.67 14.6927 22.67 11.8066 22.67Z" fill="#FFFBF9"/>
<path fill-rule="evenodd" clip-rule="evenodd" d="M6.54461 17.3256C5.84176 17.3277 5.17875 17.6524 4.74582 18.2064C4.12789 18.9968 3.21509 20.1646 2.53723 21.0317C2.36837 21.2474 2.3375 21.5408 2.45766 21.7871C2.57778 22.034 2.828 22.19 3.10217 22.19H9.5527C9.78043 21.7094 10.2648 21.4028 10.7969 21.4028C13.348 21.4028 20.7778 21.4028 23.2635 21.4028C23.7735 21.4028 24.2468 21.1374 24.5131 20.7023C24.9862 19.9299 25.7421 18.6954 26.2092 17.9326C26.2929 17.7956 26.2961 17.6243 26.2174 17.4848C26.1388 17.3447 25.9907 17.2585 25.8304 17.259C22.587 17.2701 10.3207 17.3124 6.54461 17.3256Z" fill="#FFFBF9"/>
<path fill-rule="evenodd" clip-rule="evenodd" d="M26.3581 20.3724C26.2288 20.5802 26.2223 20.8419 26.3412 21.056C26.4601 21.2701 26.6857 21.4028 26.9305 21.4028H30.5479C30.8271 21.4028 31.0948 21.2918 31.2921 21.0946C31.4896 20.8968 31.6004 20.6293 31.6004 20.3502C31.6004 18.328 31.6004 13.9231 31.6004 11.9179C31.6004 11.3479 31.1386 10.8864 30.5689 10.8864C27.2659 10.8864 16.9752 10.8864 13.6937 10.8864C13.0608 10.8864 12.4718 11.21 12.1323 11.7439C11.5336 12.686 10.8367 14.1874 10.2472 15.1147C10.1425 15.2791 10.1358 15.488 10.2298 15.6593C10.3238 15.8306 10.5035 15.9368 10.6987 15.9368H26.7223C27.2057 15.9368 27.6511 16.1991 27.8859 16.6215C28.1206 17.0439 28.1078 17.5604 27.8524 17.9712C27.3436 18.789 26.7789 19.6962 26.3581 20.3724Z" fill="#FFFBF9"/>
<path fill-rule="evenodd" clip-rule="evenodd" d="M23.4114 9.61915C23.55 9.61915 23.6792 9.54888 23.7549 9.4331C24.155 8.82036 25.4465 6.84259 26.1521 5.76197C26.2457 5.61868 26.2532 5.43525 26.1718 5.28509C26.0902 5.13443 25.9329 5.04083 25.7617 5.04083C22.6521 5.04083 11.9555 5.04083 7.50586 5.04083C6.98438 5.04083 6.4843 5.24755 6.11555 5.61657C5.74688 5.98505 5.53969 6.48517 5.53969 7.007C5.53969 8.96415 5.53969 11.9575 5.53969 13.9601C5.53969 14.5078 5.76395 15.0312 6.16024 15.4092C6.55652 15.7872 7.09024 15.986 7.63719 15.9601H7.89488C7.90164 15.9046 9.97578 12.3238 11.1206 10.5681C11.5069 9.97603 12.1661 9.61915 12.8732 9.61915C15.5468 9.61915 22.1205 9.61915 23.4114 9.61915Z" fill="#FFFBF9"/>
</svg>
