<svg width="40" height="42" viewBox="0 0 40 42" fill="none" xmlns="http://www.w3.org/2000/svg">
<g clip-path="url(#clip0_22_149)">
<path d="M23.3752 40.4029C22.3256 41.7247 20.1975 41.0005 20.1722 39.3128L19.8024 14.6277H36.4006C39.4069 14.6277 41.0837 18.1001 39.2142 20.4547L23.3752 40.4029Z" fill="url(#paint0_linear_22_149)"/>
<path d="M23.3752 40.4029C22.3256 41.7247 20.1975 41.0005 20.1722 39.3128L19.8024 14.6277H36.4006C39.4069 14.6277 41.0837 18.1001 39.2142 20.4547L23.3752 40.4029Z" fill="url(#paint1_linear_22_149)" fill-opacity="0.2"/>
<path d="M16.6248 0.68267C17.6744 -0.639247 19.8026 0.0850674 19.8279 1.77282L19.99 26.4578H3.59953C0.593061 26.4578 -1.0837 22.9854 0.78581 20.6309L16.6248 0.68267Z" fill="#3ECF8E"/>
</g>
<defs>
<linearGradient id="paint0_linear_22_149" x1="441.16" y1="561.957" x2="1392.92" y2="961.122" gradientUnits="userSpaceOnUse">
<stop stop-color="#249361"/>
<stop offset="1" stop-color="#3ECF8E"/>
</linearGradient>
<linearGradient id="paint1_linear_22_149" x1="60.0192" y1="-333.514" x2="671.003" y2="816.63" gradientUnits="userSpaceOnUse">
<stop/>
<stop offset="1" stop-opacity="0"/>
</linearGradient>
<clipPath id="clip0_22_149">
<rect width="40" height="41.0938" fill="white"/>
</clipPath>
</defs>
</svg>
