<svg width="60" height="60" viewBox="0 0 60 60" fill="none" xmlns="http://www.w3.org/2000/svg">
<rect width="60" height="60" rx="12" fill="#CEFFF6"/>
<path d="M29.475 16.3249C21.4 16.5816 19 22.3499 18.45 25.4749C19.1667 24.3166 21.425 21.775 24.75 21.775C28.625 21.775 31.575 26.1 33.375 27.45C35.5619 29.0901 39.9562 31.2557 45.725 29.5C50.325 28.1 52.4584 23.2166 52.925 20.8999C50.7 23.9249 47.325 25.7419 43.15 23.5999C40.275 22.1249 38.125 16.05 29.475 16.3249Z" fill="#07B6D5"/>
<path d="M18.05 30.05C9.97499 30.3066 7.57499 36.075 7.02499 39.2C7.74166 38.0416 9.99999 35.5 13.325 35.5C17.2 35.5 20.15 39.825 21.95 41.175C24.1368 42.8152 28.5311 44.9808 34.3 43.225C38.9 41.825 41.0333 36.9416 41.5 34.625C39.275 37.65 35.9 39.4669 31.725 37.325C28.85 35.85 26.7 29.775 18.05 30.05Z" fill="#07B6D5"/>
</svg>
