<svg width="60" height="60" viewBox="0 0 60 60" fill="none" xmlns="http://www.w3.org/2000/svg">
<rect width="60" height="60" rx="12" fill="#BCDCFF"/>
<g clip-path="url(#clip0_10_87)">
<path d="M13.125 10H46.875C48.6009 10 50 11.3991 50 13.125V46.875C50 48.6009 48.6009 50 46.875 50H13.125C11.3991 50 10 48.6009 10 46.875V13.125C10 11.3991 11.3991 10 13.125 10Z" fill="#3178C6"/>
<path d="M33.5184 41.3242V45.6398C34.2203 45.9995 35.0505 46.2692 36.0087 46.4491C36.967 46.6289 37.977 46.7188 39.0389 46.7188C40.0736 46.7188 41.0567 46.6198 41.988 46.422C42.9192 46.2242 43.7359 45.8983 44.4377 45.4444C45.1395 44.9903 45.6952 44.3969 46.1047 43.6641C46.5141 42.9314 46.7188 42.0256 46.7188 40.9467C46.7188 40.1645 46.6017 39.4789 46.3678 38.89C46.1339 38.3011 45.7964 37.7773 45.3555 37.3189C44.9147 36.8603 44.3859 36.4491 43.7697 36.0848C43.1533 35.7208 42.4581 35.3769 41.6842 35.0533C41.1173 34.8194 40.6091 34.5925 40.1591 34.3722C39.7092 34.1519 39.3267 33.9272 39.0119 33.6978C38.6969 33.4686 38.4539 33.2258 38.283 32.9695C38.112 32.7133 38.0266 32.4234 38.0266 32.0997C38.0266 31.803 38.103 31.5356 38.2559 31.2973C38.4089 31.0591 38.625 30.8545 38.9039 30.6838C39.1828 30.5128 39.5247 30.3803 39.9297 30.2858C40.3345 30.1914 40.7845 30.1442 41.2794 30.1442C41.6394 30.1442 42.0195 30.1712 42.4198 30.2252C42.8203 30.2791 43.223 30.3622 43.628 30.4747C44.0328 30.587 44.4264 30.7286 44.8089 30.8995C45.1912 31.0703 45.5445 31.2681 45.8684 31.4928V27.4605C45.2116 27.2088 44.4939 27.0222 43.7156 26.9008C42.9373 26.7794 42.0442 26.7188 41.0364 26.7188C40.0106 26.7188 39.0389 26.8289 38.1211 27.0492C37.2033 27.2694 36.3956 27.6133 35.6983 28.0808C35.0009 28.5484 34.4498 29.1441 34.0448 29.8678C33.64 30.5916 33.4375 31.4569 33.4375 32.4639C33.4375 33.7495 33.8086 34.8464 34.5511 35.7545C35.2934 36.6625 36.4203 37.4312 37.932 38.0606C38.5259 38.3034 39.0794 38.5416 39.5922 38.7755C40.1052 39.0092 40.5483 39.2519 40.9217 39.5036C41.2952 39.7553 41.5898 40.0295 41.8058 40.3263C42.0217 40.623 42.1297 40.9602 42.1297 41.3378C42.1297 41.6164 42.0622 41.875 41.9272 42.1133C41.7923 42.3514 41.5875 42.5583 41.3131 42.7336C41.0388 42.9089 40.6967 43.0459 40.2873 43.1448C39.878 43.2437 39.3988 43.2933 38.8498 43.2933C37.9141 43.2933 36.9873 43.1292 36.0695 42.8009C35.1516 42.4728 34.3013 41.9806 33.5184 41.3242ZM26.3253 30.5847H31.875V27.0312H16.4062V30.5847H21.9289V46.4062H26.3253V30.5847Z" fill="white"/>
</g>
<defs>
<clipPath id="clip0_10_87">
<rect width="40" height="40" fill="white" transform="translate(10 10)"/>
</clipPath>
</defs>
</svg>
